<svg xmlns="http://www.w3.org/2000/svg" width="24" height="24" viewBox="0 0 24 24" fill="none" stroke="#007bff" stroke-width="2" stroke-linecap="round" stroke-linejoin="round">
                                                        <!-- Phone base -->
                                                        <path d="M22 16.92v3a2 2 0 0 1-2.18 2 19.9 19.9 0 0 1-8.63-3.07 19.5 19.5 0 0 1-6-6A19.9 19.9 0 0 1 2.1 4.18 2 2 0 0 1 4.1 2h3a2 2 0 0 1 2 1.72c.1.88.3 1.74.57 2.57a2 2 0 0 1-.45 2L8.09 9.91a16 16 0 0 0 6 6l1.62-1.62a2 2 0 0 1 2-.45c.83.27 1.69.47 2.57.57a2 2 0 0 1 1.72 2z"></path>
                                                        <!-- Outgoing arrow embedded from handset -->
                                                        <path d="M16 2h6v6"></path>
                                                        <path d="M22 2L14 10"></path>
                                                        </svg>